<?xml version="1.0" encoding="UTF-8"?>
<!DOCTYPE svg PUBLIC "-//W3C//DTD SVG 1.1//EN" "http://www.w3.org/Graphics/SVG/1.1/DTD/svg11.dtd">
<!-- Creator: CorelDRAW 2018 -->
<svg xmlns="http://www.w3.org/2000/svg" xml:space="preserve" width="469px" height="512px" version="1.1" style="shape-rendering:geometricPrecision; text-rendering:geometricPrecision; image-rendering:optimizeQuality; fill-rule:evenodd; clip-rule:evenodd"
viewBox="0 0 188.38 205.52"
 xmlns:xlink="http://www.w3.org/1999/xlink">
 <defs>
  <style type="text/css">
   <![CDATA[
    .fil0 {fill:#ffffff}
   ]]>
  </style>
 </defs>
 <g id="Слой_x0020_1">
  <metadata id="CorelCorpID_0Corel-Layer"/>
  <path class="fil0" d="M23.36 137.02c-3.75,-7.11 -13.66,-27.34 -13.42,-59.38 19.25,-15.86 45.48,-29.79 72.74,-34.16 1.31,-4.29 3.03,-10.89 4.34,-15.18 33.49,-23.92 67.72,-28.49 101.36,-28.29 -10.68,12.32 -18.65,24.02 -25.07,35.66 3.72,4.34 5.24,11.24 3.39,20.75 -13.52,21.56 -24.97,51.21 -29.15,80.61l-23.6 -0.04c-29.78,0 -61.25,0.03 -90.59,0.03zm94.42 -85.29c-20.02,19.31 -31.25,41.58 -34.85,68.25 -0.73,-22.9 11.25,-58.45 34.85,-68.25zm-30.51 32.95c4.7,-10.11 9.93,-19.95 18.76,-27.84 -12.61,6.68 -18.45,19.54 -18.76,27.84zm22.05 -30.12c0.99,-3.26 1.45,-6.59 -0.35,-9.86 -5.49,-0.66 -8.75,1.73 -10.5,6.21 0.42,0.64 0.84,1.28 1.26,1.93 2.56,-1.91 5.13,-3.57 7.69,-3.45 0.68,0.4 1.28,2.85 1.9,5.17l0 0zm21.83 67.39c4.22,-28.04 10.23,-53.82 22.67,-71.57 1.95,0 3.91,1.28 5.87,3.85 2.73,-14 -15.51,-20.26 -35.54,-5.36 -20.02,14.9 -33.89,40.69 -36.65,59.59 14.08,-39.14 35.35,-54.55 59.88,-59.18 -10.59,20.83 -14.6,45.97 -16.23,72.67l0 0zm-69.7 -31.01c-0.88,-6.03 -2.55,-15 -3.43,-21.03 1.72,-4.75 6.09,-8.04 8.44,-8.81l-5.01 29.84zm-35.4 39.08c0.22,-0.2 0.44,-0.4 0.66,-0.61 9.78,-9.12 18.91,-18.84 28.72,-33.43 3.5,1.08 6.63,1.03 9.38,-0.14 0.47,1.13 0.94,2.25 1.4,3.37 -3.36,-0.1 -6.72,-0.19 -10.08,-0.28 -11.81,15.53 -20.81,23.54 -29.44,30.58 -0.45,0.37 -0.9,0.73 -1.35,1.09l0.71 -0.58zm3.21 1.14c8.33,-5.14 17.25,-13.77 23.69,-21.98 0.84,1.36 1.84,3.92 1.78,5.58 2.29,-1.33 4.55,-5.84 5.34,-8.29 0.6,0.43 0.9,3.03 0.78,4.32 1.96,-0.24 6.76,-4.78 7.23,-6.54 5.39,13.12 13.38,19.26 22.77,26.91l-61.59 0zm-29.26 5.45l166.89 0 -1.43 2.98 -164.03 0 -1.43 -2.98zm9.24 19.14l148.41 0 -1.43 2.97 -145.55 0 -1.43 -2.97zm-2.31 -4.78l153.03 0 -1.43 2.97 -150.17 0 -1.43 -2.97zm-2.31 -4.79l157.65 0 -1.43 2.97 -154.79 0 -1.43 -2.97zm-2.31 -4.78l162.27 0 -1.43 2.97 -159.41 0 -1.43 -2.97zm22.4 49.84l-3.6 0 0 13.85 -4.16 0 0 -19.27 4.16 0 0 2.14 3.22 0 1.72 -2.14 4.77 0 -2.75 3.41 12.8 15.75 -0.06 0.11 -4.96 0 -11.14 -13.85zm-7.76 -8.15l0 -8.76 4.16 0 0 8.76 -4.16 0zm11.31 0l7.08 -8.76 4.6 0 0.07 0.1 -6.98 8.66 -4.77 0zm33.19 14.08l-12.89 0 -2.92 7.92 -4.24 0 7.45 -19.27 3.89 0 -2.89 7.85 10.35 0 -2.84 -7.85 3.88 0 7.33 19.27 -4.25 0 -2.87 -7.92zm-11.54 -14.08l3.38 -8.76 3.57 0 3.34 8.76 -3.83 0 -1.24 -3.42 -0.13 0 -1.26 3.42 -3.83 0zm39.65 14.24c0,-1.4 -0.54,-2.57 -1.59,-3.51 -1.06,-0.95 -2.93,-1.74 -5.62,-2.38 -3.26,-0.78 -5.8,-1.92 -7.62,-3.43 -0.79,-0.65 -1.41,-1.38 -1.86,-2.19l5.43 0c1.21,0.8 3.04,1.5 5.49,2.11 3.24,0.8 5.7,1.99 7.39,3.55 1.69,1.57 2.54,3.5 2.54,5.81 0,2.48 -1.02,4.47 -3.05,5.98 -2.02,1.5 -4.68,2.25 -7.94,2.25 -3.07,0 -5.79,-0.83 -8.15,-2.5 -2.35,-1.68 -3.5,-3.91 -3.43,-6.7l0.04 -0.13 3.97 0c0,1.97 0.73,3.48 2.18,4.5 1.45,1.03 3.24,1.55 5.39,1.55 2.1,0 3.76,-0.44 4.99,-1.32 1.22,-0.88 1.84,-2.08 1.84,-3.59zm-17.53 -14.24c-0.02,-0.26 -0.03,-0.51 -0.03,-0.77 0,-2.41 0.98,-4.4 2.94,-6.01 1.97,-1.61 4.51,-2.42 7.64,-2.42 3.37,0 6.05,0.93 8.04,2.78 1.99,1.84 2.95,3.98 2.88,6.42l-4.01 0c-0.03,-1.74 -0.63,-3.15 -1.79,-4.24 -1.19,-1.11 -2.9,-1.67 -5.12,-1.67 -2.07,0 -3.66,0.47 -4.76,1.4 -1.11,0.94 -1.66,2.16 -1.66,3.66 0,0.3 0.03,0.58 0.08,0.85l-4.21 0zm49.48 13.56c-0.23,2.31 -1.23,4.29 -2.99,5.94 -2.08,1.95 -4.84,2.93 -8.26,2.93 -3.48,0 -6.32,-1.23 -8.51,-3.69 -2.18,-2.46 -3.28,-5.59 -3.28,-9.37l0 -5.48c0,-0.39 0.01,-0.78 0.04,-1.16l4.16 0c-0.03,0.37 -0.04,0.74 -0.04,1.12l0 5.49c0,2.8 0.69,5.13 2.07,7 1.38,1.87 3.23,2.81 5.56,2.81 2.31,0 4.1,-0.62 5.37,-1.87 0.97,-0.96 1.57,-2.2 1.79,-3.72l4.09 0zm-22.6 -13.56c0.51,-2.1 1.46,-3.93 2.84,-5.49 2.19,-2.47 5.03,-3.71 8.51,-3.71 3.48,0 6.25,0.93 8.3,2.79 1.84,1.66 2.83,3.79 2.99,6.41l-4.08 0c-0.19,-1.65 -0.8,-2.99 -1.84,-4.03 -1.27,-1.25 -3.06,-1.88 -5.37,-1.88 -2.33,0 -4.18,0.94 -5.56,2.81 -0.68,0.92 -1.19,1.95 -1.54,3.1l-4.25 0zm51.56 9.37c0,3.75 -1.17,6.87 -3.5,9.35 -2.33,2.47 -5.36,3.71 -9.07,3.71 -3.59,0 -6.51,-1.24 -8.76,-3.71 -2.25,-2.48 -3.37,-5.6 -3.37,-9.35l0 -5.48c0,-0.39 0.01,-0.78 0.04,-1.16l4.16 0c-0.03,0.38 -0.04,0.77 -0.04,1.17l0 5.49c0,2.83 0.72,5.14 2.17,6.94 1.44,1.79 3.38,2.69 5.8,2.69 2.57,0 4.62,-0.9 6.14,-2.69 1.51,-1.79 2.27,-4.1 2.27,-6.94l0 -5.49c0,-0.4 -0.02,-0.79 -0.05,-1.17l4.17 0c0.03,0.38 0.04,0.77 0.04,1.16l0 5.48zm-24.24 -9.37c0.52,-2.07 1.49,-3.89 2.91,-5.46 2.25,-2.49 5.17,-3.74 8.76,-3.74 3.71,0 6.74,1.24 9.07,3.73 1.47,1.57 2.48,3.39 3.02,5.47l-4.28 0c-0.38,-1.12 -0.94,-2.12 -1.69,-3 -1.52,-1.8 -3.56,-2.69 -6.12,-2.69 -2.42,0 -4.36,0.89 -5.8,2.69 -0.71,0.88 -1.24,1.88 -1.6,3l-4.27 0z"/>
 </g>
</svg>
