<?xml version="1.0" standalone="no"?>
<!DOCTYPE svg PUBLIC "-//W3C//DTD SVG 20010904//EN"
 "http://www.w3.org/TR/2001/REC-SVG-20010904/DTD/svg10.dtd">
<svg version="1.0" xmlns="http://www.w3.org/2000/svg"
 width="512.000000pt" height="512.000000pt" viewBox="0 0 512.000000 512.000000"
 preserveAspectRatio="xMidYMid meet">
<metadata>
Created by potrace 1.14, written by Peter Selinger 2001-2017
</metadata>
<g transform="translate(0.000000,512.000000) scale(0.100000,-0.100000)"
fill="#000000" stroke="none">
<path d="M4537 5104 c-1 -1 -42 -5 -92 -8 -120 -9 -184 -15 -220 -20 -16 -3
-57 -8 -90 -11 -33 -4 -78 -11 -100 -15 -22 -5 -58 -11 -80 -14 -44 -7 -43 -7
-154 -30 -217 -47 -505 -140 -691 -223 -147 -65 -431 -218 -438 -235 -2 -4 -8
-8 -14 -8 -17 0 -188 -122 -199 -142 -6 -11 -12 -27 -14 -36 -2 -9 -24 -87
-48 -172 l-44 -154 -129 -27 c-170 -35 -401 -102 -524 -152 -14 -6 -29 -11
-35 -12 -27 -6 -303 -133 -395 -182 -227 -121 -448 -262 -625 -400 l-100 -78
3 -105 c1 -58 5 -139 8 -180 4 -41 7 -94 8 -117 0 -24 4 -43 7 -43 3 0 5 -10
4 -22 -1 -12 2 -40 6 -63 4 -22 10 -58 13 -80 6 -38 10 -60 22 -115 3 -14 7
-36 10 -50 3 -14 7 -33 10 -42 3 -9 7 -25 9 -35 13 -66 72 -257 95 -310 6 -13
14 -33 19 -45 38 -97 66 -160 89 -203 l27 -50 73 -1 c40 0 76 -4 80 -9 4 -4
-36 -5 -88 -2 -76 5 -520 10 -618 8 -22 -1 -22 -1 -6 -34 9 -17 20 -34 24 -37
6 -4 4011 -5 4056 -1 16 1 47 71 31 72 -6 0 -167 1 -357 1 -190 0 -348 2 -351
4 -8 4 46 300 75 414 6 20 27 111 31 130 17 82 144 478 185 575 4 11 34 83 65
160 70 170 208 450 299 604 70 119 75 135 80 277 2 67 -11 165 -27 203 -5 14
-11 31 -13 38 -1 7 -16 32 -32 57 l-30 44 30 53 c142 252 348 544 558 792 l33
39 -217 -3 c-119 -2 -218 -4 -219 -5z m-532 -998 c102 -14 195 -74 233 -149
25 -50 38 -123 28 -162 l-7 -26 -24 29 c-25 30 -81 62 -108 62 -24 0 -157
-228 -226 -390 -108 -254 -235 -704 -287 -1020 -2 -14 -7 -41 -10 -60 -7 -38
-9 -52 -19 -120 -9 -59 -26 -89 -21 -35 3 22 7 74 11 115 3 41 8 91 10 110 3
19 7 62 10 95 2 33 6 69 9 80 2 11 7 45 11 75 8 65 65 381 70 389 1 4 6 22 9
41 7 47 84 321 95 340 5 9 12 31 16 50 4 19 11 41 16 50 5 8 27 62 51 120 23
58 52 124 64 147 l22 43 -26 -6 c-175 -40 -280 -74 -407 -134 -416 -194 -753
-586 -979 -1140 -15 -36 -31 -74 -35 -85 -5 -11 -15 -35 -21 -53 -24 -61 -20
-26 9 89 26 101 59 203 94 294 28 69 182 370 197 385 3 3 21 30 40 60 52 83
145 206 224 295 272 305 544 479 803 513 61 8 70 8 148 -2z m-1003 -105 c10
-2 28 -62 30 -101 3 -46 -11 -130 -21 -130 -4 0 -8 6 -8 14 0 8 -8 35 -17 61
-17 44 -19 46 -50 39 -33 -7 -108 -43 -140 -67 -18 -13 -22 -12 -37 7 -16 20
-16 23 2 58 48 94 139 140 241 119z m150 -243 c-259 -268 -456 -557 -582 -853
-19 -44 -38 -84 -42 -90 -4 -5 -8 -18 -8 -30 0 -12 -4 -25 -9 -30 -19 -20
-107 -335 -125 -445 -2 -14 -7 -41 -11 -60 -3 -19 -7 -43 -9 -52 -1 -10 -5
-20 -7 -23 -10 -9 3 192 16 265 1 8 6 37 9 63 9 60 10 66 31 152 9 39 19 80
21 92 5 25 77 238 96 287 53 129 195 378 253 442 11 12 40 46 64 76 65 78 158
156 257 216 48 28 91 52 97 52 5 0 -18 -28 -51 -62z m-282 -115 c-25 -26 -52
-54 -60 -63 -70 -70 -212 -295 -293 -462 -26 -54 -49 -98 -51 -98 -2 0 2 30
10 68 35 178 109 315 242 451 64 65 173 151 191 151 3 0 -15 -21 -39 -47z
m-925 -70 c-2 -16 -7 -46 -10 -68 -4 -22 -8 -47 -10 -55 -2 -8 -6 -28 -9 -45
-11 -72 -68 -411 -71 -425 -2 -8 -7 -37 -11 -63 -10 -67 -13 -61 -29 58 -11
75 -12 81 -34 205 -35 203 -35 195 -4 251 34 63 122 144 181 168 1 1 0 -11 -3
-26z m-155 -858 c36 0 77 4 91 7 22 7 28 3 42 -28 9 -19 17 -37 17 -40 0 -2
-56 -3 -124 -1 l-124 4 -54 -70 c-29 -39 -57 -75 -63 -81 -5 -6 -35 -40 -65
-76 -105 -125 -266 -290 -372 -382 -34 -29 -69 -60 -78 -68 -70 -64 -44 -33
70 84 74 76 140 143 145 149 30 35 143 167 160 188 38 47 162 214 200 271 35
52 41 57 64 50 14 -4 55 -7 91 -7z m234 -267 c88 -187 208 -327 439 -516 49
-40 87 -73 85 -73 -11 -4 -1508 -3 -1508 1 0 4 20 19 95 70 103 71 319 278
431 414 l49 59 17 -41 c10 -22 19 -49 21 -61 2 -11 6 -23 10 -27 12 -12 57 47
102 133 15 29 30 51 34 49 4 -3 8 -24 10 -48 1 -23 3 -44 5 -45 7 -8 101 64
134 103 20 24 39 43 42 44 3 0 18 -28 34 -62z m1544 -282 c-1 -14 -5 -23 -9
-20 -7 4 0 44 7 44 2 0 3 -11 2 -24z m-2381 -449 c3 -4 -17 -7 -45 -7 -29 0
-52 3 -52 8 0 9 87 8 97 -1z m160 0 c3 -4 -17 -7 -45 -7 -29 0 -52 3 -52 8 0
9 87 8 97 -1z m160 0 c3 -4 -17 -7 -45 -7 -29 0 -52 3 -52 8 0 9 87 8 97 -1z
m109 0 c4 -4 -5 -7 -19 -7 -15 0 -27 4 -27 8 0 10 36 9 46 -1z m44 3 c0 -5 -8
-10 -17 -10 -15 0 -16 2 -3 10 19 12 20 12 20 0z m35 0 c3 -5 -1 -10 -10 -10
-9 0 -13 5 -10 10 3 6 8 10 10 10 2 0 7 -4 10 -10z m45 0 c0 -5 -8 -10 -17
-10 -15 0 -16 2 -3 10 19 12 20 12 20 0z m30 0 c0 -5 -5 -10 -11 -10 -5 0 -7
5 -4 10 3 6 8 10 11 10 2 0 4 -4 4 -10z m140 -2 c0 -5 -13 -8 -30 -8 -16 0
-30 3 -30 8 0 4 14 7 30 7 17 0 30 -3 30 -7z m127 -1 c3 -4 -10 -7 -30 -7 -20
0 -37 3 -37 8 0 9 57 8 67 -1z m58 3 c4 -6 -6 -10 -22 -9 -25 0 -26 1 -8 9 11
5 21 9 22 9 1 1 5 -3 8 -9z m40 0 c3 -5 -1 -10 -10 -10 -9 0 -13 5 -10 10 3 6
8 10 10 10 2 0 7 -4 10 -10z m40 0 c3 -5 -1 -10 -10 -10 -9 0 -13 5 -10 10 3
6 8 10 10 10 2 0 7 -4 10 -10z m40 0 c3 -5 -1 -10 -10 -10 -9 0 -13 5 -10 10
3 6 8 10 10 10 2 0 7 -4 10 -10z m91 -3 c4 -4 -8 -7 -27 -7 -23 0 -30 3 -20 9
15 10 37 9 47 -2z m34 3 c0 -5 -5 -10 -11 -10 -5 0 -7 5 -4 10 3 6 8 10 11 10
2 0 4 -4 4 -10z m60 0 c0 -5 -8 -10 -17 -10 -15 0 -16 2 -3 10 19 12 20 12 20
0z m66 -3 c4 -4 -8 -7 -27 -7 -23 0 -30 3 -20 9 15 10 37 9 47 -2z m34 3 c0
-5 -5 -10 -11 -10 -5 0 -7 5 -4 10 3 6 8 10 11 10 2 0 4 -4 4 -10z m117 -3 c3
-4 -16 -7 -43 -7 -27 0 -44 4 -37 8 14 9 71 8 80 -1z m78 3 c4 -6 -9 -10 -32
-9 -38 1 -38 1 -8 9 17 4 31 8 32 9 1 0 5 -3 8 -9z m65 -6 c0 -2 -12 -4 -27
-4 -21 0 -24 3 -14 9 13 8 41 5 41 -5z m110 4 c0 -5 -13 -8 -30 -8 -16 0 -30
3 -30 8 0 4 14 7 30 7 17 0 30 -3 30 -7z m30 2 c0 -5 -5 -10 -11 -10 -5 0 -7
5 -4 10 3 6 8 10 11 10 2 0 4 -4 4 -10z m98 -5 c3 -3 -7 -5 -21 -5 -15 0 -27
4 -27 9 0 10 38 7 48 -4z m97 5 c3 -5 1 -10 -4 -10 -6 0 -11 5 -11 10 0 6 2
10 4 10 3 0 8 -4 11 -10z m80 0 c4 -6 -9 -10 -32 -9 -38 1 -38 1 -8 9 17 4 31
8 32 9 1 0 5 -3 8 -9z m80 0 c4 -6 -9 -10 -32 -9 -38 1 -38 1 -8 9 17 4 31 8
32 9 1 0 5 -3 8 -9z m40 0 c3 -5 -1 -10 -10 -10 -9 0 -13 5 -10 10 3 6 8 10
10 10 2 0 7 -4 10 -10z m40 0 c3 -5 -1 -10 -10 -10 -9 0 -13 5 -10 10 3 6 8
10 10 10 2 0 7 -4 10 -10z m35 0 c0 -5 -5 -10 -11 -10 -5 0 -7 5 -4 10 3 6 8
10 11 10 2 0 4 -4 4 -10z m70 -5 c0 -1 -15 -2 -32 -2 -26 -1 -29 1 -13 7 17 6
45 3 45 -5z m55 5 c4 -6 -6 -10 -22 -10 -22 0 -25 2 -13 10 19 12 27 12 35 0z
m155 -2 c0 -5 -18 -8 -40 -8 -22 0 -40 3 -40 8 0 4 18 7 40 7 22 0 40 -3 40
-7z m-2577 -5 c-7 -2 -19 -2 -25 0 -7 3 -2 5 12 5 14 0 19 -2 13 -5z m160 0
c-7 -2 -19 -2 -25 0 -7 3 -2 5 12 5 14 0 19 -2 13 -5z m160 0 c-7 -2 -19 -2
-25 0 -7 3 -2 5 12 5 14 0 19 -2 13 -5z m160 0 c-7 -2 -19 -2 -25 0 -7 3 -2 5
12 5 14 0 19 -2 13 -5z m275 0 c-10 -2 -26 -2 -35 0 -10 3 -2 5 17 5 19 0 27
-2 18 -5z m125 0 c-7 -2 -19 -2 -25 0 -7 3 -2 5 12 5 14 0 19 -2 13 -5z m844
1 c-3 -3 -12 -4 -19 -1 -8 3 -5 6 6 6 11 1 17 -2 13 -5z m140 0 c-3 -3 -12 -4
-19 -1 -8 3 -5 6 6 6 11 1 17 -2 13 -5z m121 -1 c-10 -2 -26 -2 -35 0 -10 3
-2 5 17 5 19 0 27 -2 18 -5z m495 0 c-7 -2 -21 -2 -30 0 -10 3 -4 5 12 5 17 0
24 -2 18 -5z m150 0 c-7 -2 -21 -2 -30 0 -10 3 -4 5 12 5 17 0 24 -2 18 -5z"/>
<path d="M365 1600 c-2 -3 3 -20 10 -38 10 -22 21 -32 37 -32 26 -1 3751 -1
3866 0 73 0 73 0 87 33 7 17 11 34 9 36 -6 7 -4005 7 -4009 1z"/>
<path d="M420 1477 c0 -4 7 -21 15 -37 l16 -30 1919 0 1919 0 16 31 c9 17 14
34 10 37 -9 9 -3895 8 -3895 -1z"/>
<path d="M483 1340 c6 -14 15 -31 20 -37 14 -20 3720 -19 3736 0 6 8 12 24 13
37 l3 24 -1891 1 -1891 0 10 -25z"/>
<path d="M540 1240 c-5 -3 -1 -20 10 -37 l19 -32 1801 0 1800 -1 20 33 c11 17
20 34 20 37 0 7 -3659 7 -3670 0z"/>
<path d="M2265 785 c-91 -24 -151 -78 -170 -152 -7 -26 -11 -52 -9 -58 4 -8
26 -10 90 -6 6 1 14 18 18 39 7 49 42 82 102 97 53 13 123 4 161 -21 29 -19
63 -72 63 -99 0 -19 15 -22 93 -16 14 1 0 68 -21 103 -61 98 -201 147 -327
113z"/>
<path d="M2963 785 c-88 -20 -159 -84 -198 -180 l-15 -35 55 0 c54 0 57 1 70
33 16 39 61 86 93 98 36 14 116 11 155 -6 40 -16 74 -55 84 -94 8 -34 14 -37
66 -33 44 4 44 4 37 35 -10 46 -34 88 -67 118 -24 23 -66 50 -83 55 -3 0 -12
4 -20 7 -30 13 -126 14 -177 2z"/>
<path d="M3632 782 c-61 -17 -131 -74 -166 -135 -34 -59 -37 -81 -8 -80 12 0
35 1 51 2 23 1 33 9 48 38 46 88 151 124 246 84 44 -19 91 -65 102 -101 3 -11
9 -20 13 -21 4 0 28 -2 54 -2 46 -2 47 -1 41 23 -8 33 -46 92 -80 125 -70 68
-197 96 -301 67z"/>
<path d="M720 678 c0 -59 3 -108 8 -109 41 -5 92 -2 95 6 1 6 2 55 2 110 l-1
99 -52 1 -52 1 0 -108z"/>
<path d="M1098 687 c-44 -54 -81 -104 -84 -111 -4 -9 10 -12 53 -9 31 2 59 7
62 12 3 4 38 48 78 97 40 49 72 93 73 99 0 5 -23 10 -51 10 l-52 1 -79 -99z"/>
<path d="M1620 770 c-20 -37 -79 -193 -76 -199 3 -3 24 -5 49 -3 42 4 45 6 58
45 l13 40 21 -44 c19 -41 23 -44 58 -43 20 0 39 3 42 6 3 3 -13 52 -35 110
l-41 104 -40 0 c-26 0 -44 -6 -49 -16z"/>
<path d="M720 261 l0 -241 49 0 c38 0 50 4 53 18 2 9 3 87 3 172 l-1 155 44 1
43 0 137 -169 c75 -93 141 -171 148 -174 6 -2 35 -3 64 -1 l53 3 -57 70 c-31
39 -62 77 -69 85 -107 131 -187 234 -187 240 0 5 4 11 10 15 5 3 19 19 30 35
l21 30 -55 0 c-49 0 -59 -4 -81 -28 -16 -18 -34 -28 -48 -26 -12 1 -30 3 -39
3 -12 1 -17 8 -15 24 2 20 -3 22 -50 25 l-53 3 0 -240z"/>
<path d="M1502 473 c-6 -15 -47 -122 -91 -237 -45 -115 -81 -211 -81 -213 0
-2 24 -3 53 -1 52 3 52 3 68 48 24 68 29 82 44 116 l13 31 158 -1 158 -1 24
-65 c13 -36 27 -73 33 -82 5 -10 9 -25 9 -33 0 -11 12 -15 48 -15 27 0 51 3
54 6 3 3 -7 38 -22 77 -16 40 -54 140 -85 222 -32 83 -60 156 -62 163 -6 14
-93 17 -93 2 0 -5 14 -46 30 -92 17 -45 30 -85 30 -88 0 -4 -56 -7 -125 -6
-69 0 -125 3 -125 6 0 3 14 41 30 85 17 44 32 85 33 90 1 6 -19 11 -44 13 -43
3 -47 1 -57 -25z"/>
<path d="M2115 487 c10 -24 76 -71 141 -99 36 -15 68 -27 72 -26 4 1 34 -6 66
-17 82 -26 126 -71 126 -128 0 -53 -21 -84 -74 -108 -77 -35 -186 -18 -242 38
-19 18 -34 42 -34 53 0 37 -10 46 -47 43 -56 -4 -62 -9 -57 -40 26 -145 231
-232 407 -174 157 53 202 213 91 325 -37 37 -86 61 -209 103 -108 38 -249 55
-240 30z"/>
<path d="M2747 493 c-2 -4 -3 -63 -2 -131 2 -115 4 -126 34 -187 57 -116 142
-166 274 -161 114 4 198 54 238 141 30 66 27 75 -30 75 -47 0 -50 -2 -56 -30
-14 -62 -89 -110 -173 -110 -51 0 -110 35 -141 86 -36 56 -43 93 -45 219 l-1
100 -47 3 c-25 2 -48 -1 -51 -5z"/>
<path d="M3422 368 c4 -110 8 -141 26 -178 33 -69 78 -118 136 -147 43 -23 64
-27 136 -28 73 0 93 4 142 28 114 56 166 152 169 309 2 160 7 148 -51 148
l-50 0 -1 -97 c-1 -127 -4 -154 -29 -201 -79 -151 -287 -141 -357 18 -10 24
-16 74 -18 155 l-2 120 -53 3 -52 3 4 -133z"/>
</g>
</svg>
